<svg width="32" height="32" viewBox="0 0 32 32" fill="none" xmlns="http://www.w3.org/2000/svg">
<path d="M16 0.484833C18.0575 0.484833 20.0306 1.30215 21.4855 2.75697C22.9403 4.2118 23.7576 6.18497 23.7576 8.24241C23.7576 10.2998 22.9403 12.273 21.4855 13.7278C20.0306 15.1827 18.0575 16 16 16C13.9426 16 11.9694 15.1827 10.5146 13.7278C9.05975 12.273 8.24244 10.2998 8.24244 8.24241C8.24244 6.18497 9.05975 4.2118 10.5146 2.75697C11.9694 1.30215 13.9426 0.484833 16 0.484833V0.484833ZM16 19.8788C24.5721 19.8788 31.5152 23.3503 31.5152 27.6363V31.5151H0.484863V27.6363C0.484863 23.3503 7.42789 19.8788 16 19.8788Z" fill="black"/>
</svg>
