<svg width="32" height="32" viewBox="0 0 32 32" fill="none" xmlns="http://www.w3.org/2000/svg">
<path d="M25.3333 14.6667H9.51999L14.36 8.85334C14.5863 8.58106 14.6952 8.23002 14.6627 7.87745C14.6302 7.52488 14.459 7.19966 14.1867 6.97334C13.9144 6.74703 13.5633 6.63814 13.2108 6.67065C12.8582 6.70316 12.533 6.87439 12.3067 7.14668L5.63999 15.1467C5.59514 15.2103 5.55503 15.2772 5.51999 15.3467C5.51999 15.4133 5.52 15.4533 5.42666 15.52C5.36623 15.6729 5.33458 15.8356 5.33333 16C5.33458 16.1644 5.36623 16.3271 5.42666 16.48C5.42666 16.5467 5.42666 16.5867 5.51999 16.6533C5.55503 16.7229 5.59514 16.7897 5.63999 16.8533L12.3067 24.8533C12.432 25.0039 12.589 25.1249 12.7665 25.2079C12.9439 25.2908 13.1374 25.3337 13.3333 25.3333C13.6449 25.334 13.9468 25.2255 14.1867 25.0267C14.3217 24.9147 14.4333 24.7773 14.5151 24.6221C14.5969 24.467 14.6473 24.2973 14.6634 24.1226C14.6795 23.948 14.661 23.7719 14.6089 23.6044C14.5569 23.437 14.4723 23.2814 14.36 23.1467L9.51999 17.3333H25.3333C25.687 17.3333 26.0261 17.1929 26.2761 16.9428C26.5262 16.6928 26.6667 16.3536 26.6667 16C26.6667 15.6464 26.5262 15.3073 26.2761 15.0572C26.0261 14.8072 25.687 14.6667 25.3333 14.6667Z" fill="black"/>
</svg>
