<svg width="32" height="32" viewBox="0 0 32 32" fill="none" xmlns="http://www.w3.org/2000/svg">
<path d="M14.6465 13.016C14.584 12.7625 13.9035 13.8755 14.0955 14.0415C14.2885 14.208 14.904 14.059 14.6465 13.016" fill="black"/>
<path d="M16 1C7.716 1 1 7.716 1 16C1 24.284 7.716 31 16 31C24.284 31 31 24.284 31 16C31 7.716 24.284 1 16 1ZM15.1145 16.3965C15.1145 16.6735 14.5915 16.285 14.454 16.5625C14.3165 16.8395 14.2345 15.5935 14.1795 15.177C14.1235 14.762 13.9035 16.313 13.711 16.2575C13.517 16.2025 12.5535 16.1465 12.361 15.814C12.1685 15.482 12.086 14.928 12.361 14.928C12.637 14.928 13.6555 13.9585 13.9035 13.5425C14.151 13.127 14.399 13.0155 14.289 12.49C14.1795 11.9635 14.8525 11.3675 14.8405 11.7975C14.812 12.7395 15.474 12.49 15.7215 13.238C15.9695 13.9855 15.309 14.5125 15.2805 14.235C15.253 13.958 14.9225 14.069 14.262 14.4295C13.601 14.7895 14.427 14.54 14.592 15.011C14.7575 15.482 14.95 15.288 15.5285 15.454C16.106 15.6205 15.8045 14.9835 16.0005 14.7895C16.198 14.5955 16.162 15.6485 16.4215 15.371C16.6805 15.094 17.511 15.537 17.511 15.537C18.117 15.8145 18.9705 15.913 18.9705 15.913C19.7695 16.15 20.127 16.8395 20.513 17.2435C20.8985 17.6485 20.4575 17.754 19.8525 17.2435C19.2465 16.734 19.219 16.922 19.0265 17.1675C18.833 17.412 18.4205 16.978 18.0345 17.144C17.6495 17.3105 18.2 16.535 17.842 16.258C17.484 15.981 16.603 15.7315 16.631 16.037C16.6585 16.341 15.9415 16.1745 15.4185 15.9135C14.8945 15.6515 15.1145 16.119 15.1145 16.3965V16.3965ZM19.4655 24.0705C19.8515 24.1255 19.9735 23.7705 19.9895 24.0705C20.0095 24.4665 19.879 25.095 19.631 25.012C19.3835 24.9285 19.08 24.0145 19.4655 24.0705ZM25.2485 24.484C24.918 24.6205 24.78 24.8185 24.615 25.289C24.4495 25.7595 23.981 26.0085 23.6785 25.7595C23.3765 25.5105 23.8435 25.067 24.147 25.0195C24.4495 24.9715 24.56 24.43 24.9455 24.0705C25.3315 23.71 24.6225 23.067 24.9455 22.796C25.111 22.6575 25.3045 23.2945 25.5515 23.267C25.8 23.2385 26.158 23.488 25.8545 23.7235C25.5515 23.9585 25.579 24.347 25.2485 24.484ZM21.136 4.195C21.292 3.916 21.36 3.484 21.3875 3.076C21.578 3.1555 21.7655 3.24 21.9515 3.3275C21.4215 4.197 20.866 4.677 21.136 4.195ZM18.8235 2.532C18.9885 2.9065 18.9885 4.3605 18.9885 5.1495C18.9885 5.9395 20.1865 4.776 20.806 4.7345C21.425 4.693 18.8235 6.272 18.8235 7.186C18.8235 8.1 17.749 8.1 17.088 8.557C16.427 9.014 16.4275 9.1385 16.4275 8.557C16.4275 7.9755 17.4185 7.56 17.9975 7.352C18.575 7.1445 18.3685 5.5655 18.5525 5.1085C18.736 4.652 18.6205 2.0735 18.8235 2.532V2.532ZM16.96 17.5885C17.3455 17.5055 17.841 17.6985 17.759 17.9205C17.676 18.142 17.538 18.308 17.759 18.4185C17.9785 18.5295 18.447 19.0835 18.553 18.8345C18.6575 18.585 18.514 17.313 18.8325 17.5885C19.026 17.755 19.384 18.9175 20.1825 19.638C20.981 20.358 21.1735 21.328 21.0355 21.6605C20.898 21.993 20.54 22.436 20.485 23.073C20.4295 23.71 19.631 23.793 19.3005 23.6825C18.97 23.572 18.3925 23.7935 18.3925 23.5165C18.3925 23.239 18.337 22.8795 17.9515 22.8675C17.566 22.8555 17.318 22.63 17.098 22.214C16.8775 21.7985 15.583 22.159 15.3905 22.3805C15.198 22.6015 14.5095 22.5185 14.0415 22.796C13.573 23.073 13.325 22.491 13.463 21.937C13.6005 21.383 12.9675 20.8015 12.9675 20.0805C12.9675 19.3605 14.4815 19.499 14.592 19.278C14.703 19.056 14.812 18.945 15.0875 18.641C15.3635 18.336 15.611 18.031 16.0005 18.2335C16.39 18.4365 16.2725 18.17 16.4215 17.8655C16.5705 17.5595 16.5735 17.671 16.96 17.5885V17.5885ZM16 2C16.6195 2 17.2285 2.0445 17.827 2.1225C17.7965 2.3385 17.905 2.4885 18.121 2.449C18.575 2.366 18.575 3.114 18.41 4.0695C18.2445 5.0255 17.584 5.9805 17.006 6.0225C16.4275 6.0645 16.179 6.8955 16.3035 7.269C16.4275 7.643 15.9735 8.5155 15.6835 8.5155C15.395 8.5155 15.4365 7.8095 15.395 7.0195C15.3535 6.2305 14.734 6.604 14.156 7.0195C13.5775 7.435 15.0225 7.435 14.775 7.601C14.527 7.7675 14.5685 8.1415 14.775 8.6815C14.982 9.2215 14.1145 10.344 13.7425 10.7175C13.371 11.0915 12.628 10.7175 11.8425 11.216C11.058 11.7145 12.297 12.8365 12.214 13.169C12.132 13.502 11.4705 13.4185 10.851 12.9195C10.2315 12.421 10.5205 13.543 10.9745 14.1665C11.4295 14.7895 11.4295 15.454 11.6765 15.912C11.925 16.3695 13.412 16.3685 14.0725 16.701C14.733 17.0335 16.509 16.784 16.509 16.784C17.294 16.7425 15.27 17.8225 14.5265 17.449C13.7835 17.0745 10.9745 16.41 10.231 15.496C9.4875 14.582 8.496 12.1305 9.0745 12.9195C9.652 13.709 10.8505 14.9975 10.685 14.665C10.52 14.3325 9.9425 13.46 9.983 12.8365C10.0245 12.2135 9.694 12.0055 9.447 12.2135C9.1985 12.421 9.2815 11.507 8.992 11.0085C8.703 10.51 7.753 11.632 7.0925 11.8105C6.431 11.989 6.432 13.4185 6.06 13.668C5.688 13.9165 5.069 11.9645 5.1095 11.0915C5.151 10.219 4.614 11.382 4.16 10.51C3.9925 10.1875 3.684 10.0365 3.3615 9.9725C5.6145 5.2585 10.4275 2 16 2Z" fill="black"/>
</svg>
