<svg width="18" height="18" viewBox="0 0 18 18" fill="none" xmlns="http://www.w3.org/2000/svg">
<path d="M16.2 2.7H1.80002C1.56133 2.7 1.33241 2.79482 1.16363 2.9636C0.994846 3.13238 0.900024 3.3613 0.900024 3.6V14.4C0.900024 14.6387 0.994846 14.8676 1.16363 15.0364C1.33241 15.2052 1.56133 15.3 1.80002 15.3H16.2C16.4387 15.3 16.6676 15.2052 16.8364 15.0364C17.0052 14.8676 17.1 14.6387 17.1 14.4V3.6C17.1 3.3613 17.0052 3.13238 16.8364 2.9636C16.6676 2.79482 16.4387 2.7 16.2 2.7V2.7ZM11.925 5.85C12.2234 5.85 12.5095 5.96852 12.7205 6.1795C12.9315 6.39048 13.05 6.67663 13.05 6.975C13.05 7.27337 12.9315 7.55951 12.7205 7.77049C12.5095 7.98147 12.2234 8.1 11.925 8.1C11.6267 8.1 11.3405 7.98147 11.1295 7.77049C10.9186 7.55951 10.8 7.27337 10.8 6.975C10.8 6.67663 10.9186 6.39048 11.1295 6.1795C11.3405 5.96852 11.6267 5.85 11.925 5.85V5.85ZM3.60002 12.6L6.58262 5.7429L9.97472 11.2347L12.8826 9.7902L14.4 12.6H3.60002Z" fill="black"/>
</svg>
